<?xml version="1.0" encoding="UTF-8" standalone="no" ?>
<!DOCTYPE svg PUBLIC "-//W3C//DTD SVG 1.1//EN" "http://www.w3.org/Graphics/SVG/1.1/DTD/svg11.dtd">
<svg xmlns="http://www.w3.org/2000/svg" xmlns:xlink="http://www.w3.org/1999/xlink" version="1.1" width="1080" height="1080" viewBox="0 0 1080 1080" xml:space="preserve">
<desc>Created with Fabric.js 5.2.4</desc>
<defs>
</defs>
<g transform="matrix(1 0 0 1 540 540)" id="e4f49d89-e9fa-4e92-8283-f7cb7c8c43cd"  >
</g>
<g transform="matrix(1 0 0 1 540 540)" id="eabde030-965e-44e5-9432-33134d4a429c"  >
<rect style="stroke: none; stroke-width: 1; stroke-dasharray: none; stroke-linecap: butt; stroke-dashoffset: 0; stroke-linejoin: miter; stroke-miterlimit: 4; fill: rgb(255,255,255); fill-rule: nonzero; opacity: 1; visibility: hidden;" vector-effect="non-scaling-stroke"  x="-540" y="-540" rx="0" ry="0" width="1080" height="1080" />
</g>
<g transform="matrix(4.26 0 0 4.26 325.73 362.5)"  >
<g style="" vector-effect="non-scaling-stroke"   >
		<g transform="matrix(1 0 0 1 -65.05 -32.39)"  >
<rect style="stroke: none; stroke-width: 1; stroke-dasharray: none; stroke-linecap: butt; stroke-dashoffset: 0; stroke-linejoin: miter; stroke-miterlimit: 4; fill: rgb(86,184,129); fill-opacity: 0; fill-rule: nonzero; opacity: 1;" vector-effect="non-scaling-stroke"  x="-50" y="-50" rx="0" ry="0" width="100" height="100" />
</g>
		<g transform="matrix(1 0 0 1 26.18 42.61)"  >
<path style="stroke: rgb(254,255,255); stroke-width: 3; stroke-dasharray: none; stroke-linecap: butt; stroke-dashoffset: 0; stroke-linejoin: miter; stroke-miterlimit: 4; fill: rgb(254,255,255); fill-opacity: 0; fill-rule: nonzero; opacity: 1;" vector-effect="non-scaling-stroke"  transform=" translate(-36.72, -38.77)" d="M 67.54500198364258 7.469501495361328 C 51.50095294939696 -4.256688854752801 29.18853117380199 -1.954106163784889 15.87732994036547 12.801468079982971 C 2.56612870692895 27.55704232375083 2.566128706928964 49.98795965989179 15.877329940365499 64.74353390365964 C 29.188531173802033 79.49910814742748 51.500952949396996 81.80169083839539 67.5450019836426 70.07550048828124" stroke-linecap="round" />
</g>
		<g transform="matrix(1 0 0 1 57.01 42.62)"  >
<rect style="stroke: none; stroke-width: 2; stroke-dasharray: none; stroke-linecap: butt; stroke-dashoffset: 0; stroke-linejoin: miter; stroke-miterlimit: 4; fill: rgb(254,255,255); fill-opacity: 0; fill-rule: nonzero; opacity: 1;" vector-effect="non-scaling-stroke"  x="-57.545" y="-31.305" rx="0" ry="0" width="115.09" height="62.61" />
</g>
		<g transform="matrix(1 0 0 1 57.01 35.54)"  >
<path style="stroke: none; stroke-width: 1; stroke-dasharray: none; stroke-linecap: butt; stroke-dashoffset: 0; stroke-linejoin: miter; stroke-miterlimit: 4; fill: rgb(254,255,255); fill-rule: nonzero; opacity: 1;" vector-effect="non-scaling-stroke"  transform=" translate(-52.62, 20.7)" d="M 7.8 0 L 5.07 -41.27 L 20.93 -41.27 L 22.04 -13.13 L 32.89 -41.27 L 45.76 -41.27 L 47.45 -13.13 L 58.37 -41.27 L 65.2 -41.27 L 49.14 0 L 34.52 0 L 33.15 -23.34 L 23.4 0 L 7.8 0 Z M 97.76 -29.32 L 86.97 -29.32 Q 87.16 -30.29 87.16 -31.98 L 87.16 -31.98 Q 87.16 -32.95 87.03 -33.9 Q 86.91 -34.84 86.58 -35.59 Q 86.25 -36.34 85.61 -36.76 Q 84.95 -37.18 83.91 -37.18 L 83.91 -37.18 Q 82.75 -37.18 81.77 -36.66 Q 80.8 -36.14 80.05 -35.33 Q 79.3 -34.52 78.88 -33.44 Q 78.45 -32.37 78.45 -31.2 L 78.45 -31.2 Q 78.45 -29.51 79.33 -28.6 Q 80.21 -27.69 81.64 -27.11 Q 83.07 -26.52 84.89 -26.13 Q 86.71 -25.74 88.66 -25.22 L 88.66 -25.22 Q 90.28 -24.77 91.91 -24.05 Q 93.53 -23.34 94.8 -22.13 Q 96.07 -20.93 96.85 -19.01 Q 97.63 -17.09 97.63 -14.24 L 97.63 -14.24 Q 97.63 -10.14 96 -7.35 Q 94.38 -4.55 91.52 -2.79 Q 88.66 -1.04 84.73 -0.26 Q 80.8 0.52 76.18 0.52 L 76.18 0.52 Q 71.5 0.52 68.54 -0.1 Q 65.58 -0.72 63.89 -1.43 L 63.89 -1.43 Q 61.88 -2.27 60.91 -3.38 L 60.91 -3.38 L 63.12 -12.29 L 74.56 -12.29 Q 74.49 -11.7 74.42 -10.69 Q 74.36 -9.69 74.36 -9.1 L 74.36 -9.1 Q 74.36 -8.32 74.56 -7.48 Q 74.75 -6.63 75.17 -5.92 Q 75.59 -5.2 76.38 -4.75 Q 77.16 -4.29 78.33 -4.29 L 78.33 -4.29 Q 79.63 -4.29 80.63 -4.88 Q 81.64 -5.46 82.32 -6.34 Q 83 -7.21 83.36 -8.29 Q 83.72 -9.36 83.72 -10.4 L 83.72 -10.4 Q 83.72 -11.83 83.04 -12.8 Q 82.36 -13.78 81.19 -14.46 Q 80.02 -15.15 78.49 -15.63 Q 76.96 -16.12 75.33 -16.64 L 75.33 -16.64 Q 73.78 -17.09 72.05 -17.75 Q 70.33 -18.39 68.9 -19.57 Q 67.47 -20.73 66.53 -22.52 Q 65.58 -24.31 65.58 -27.11 L 65.58 -27.11 Q 65.58 -31.27 67.7 -34.09 Q 69.81 -36.92 73.03 -38.68 Q 76.25 -40.43 80.08 -41.18 Q 83.91 -41.93 87.36 -41.93 L 87.36 -41.93 Q 91.91 -41.93 95.19 -40.85 Q 98.47 -39.78 100.16 -38.35 L 100.16 -38.35 L 97.76 -29.32 Z" stroke-linecap="round" />
</g>
		<g transform="matrix(1 0 0 1 57.01 66.84)"  >
<path style="stroke: none; stroke-width: 1; stroke-dasharray: none; stroke-linecap: butt; stroke-dashoffset: 0; stroke-linejoin: miter; stroke-miterlimit: 4; fill: rgb(254,255,255); fill-rule: nonzero; opacity: 1;" vector-effect="non-scaling-stroke"  transform=" translate(-39.47, 3.94)" d="M 0.28 -7.87 L 1.94 0 L 3.13 0 L 4.3 -4.74 C 4.36 -5.04 4.43 -5.34 4.49 -5.63 C 4.56 -5.93 4.63 -6.22 4.69 -6.53 L 4.74 -6.53 C 4.8 -6.22 4.87 -5.93 4.93 -5.63 C 4.99 -5.34 5.05 -5.04 5.12 -4.74 L 6.31 0 L 7.51 0 L 9.14 -7.87 L 8.18 -7.87 L 7.36 -3.59 C 7.28 -3.16 7.2 -2.74 7.13 -2.32 C 7.06 -1.9 6.98 -1.48 6.91 -1.04 L 6.86 -1.04 C 6.77 -1.48 6.67 -1.9 6.58 -2.33 C 6.48 -2.75 6.38 -3.17 6.29 -3.59 L 5.2 -7.87 L 4.28 -7.87 L 3.19 -3.59 C 3.1 -3.16 3.01 -2.74 2.92 -2.32 C 2.82 -1.9 2.73 -1.48 2.64 -1.04 L 2.59 -1.04 C 2.52 -1.48 2.44 -1.9 2.36 -2.32 C 2.28 -2.73 2.21 -3.16 2.14 -3.59 L 1.31 -7.87 Z M 13.86 -3.2 L 11.5 -3.2 L 11.87 -4.4 C 12.01 -4.84 12.15 -5.28 12.28 -5.72 C 12.4 -6.15 12.53 -6.6 12.65 -7.06 L 12.7 -7.06 C 12.82 -6.6 12.95 -6.15 13.08 -5.72 C 13.21 -5.28 13.34 -4.84 13.49 -4.4 Z M 14.11 -2.4 L 14.86 0 L 15.92 0 L 13.26 -7.87 L 12.13 -7.87 L 9.47 0 L 10.49 0 L 11.24 -2.4 Z M 18.19 -7.03 L 18.19 0 L 19.2 0 L 19.2 -7.03 L 21.58 -7.03 L 21.58 -7.87 L 15.82 -7.87 L 15.82 -7.03 Z M 22.25 -3.94 C 22.25 -3.3 22.33 -2.72 22.51 -2.21 C 22.68 -1.71 22.92 -1.28 23.23 -0.93 C 23.53 -0.58 23.9 -0.32 24.32 -0.13 C 24.74 0.05 25.2 0.14 25.69 0.14 C 26.2 0.14 26.64 0.04 27.04 -0.16 C 27.43 -0.36 27.78 -0.64 28.09 -1 L 27.53 -1.61 C 27.27 -1.33 27 -1.11 26.72 -0.96 C 26.43 -0.81 26.1 -0.73 25.72 -0.73 C 25.34 -0.73 25 -0.81 24.7 -0.96 C 24.4 -1.11 24.15 -1.33 23.94 -1.61 C 23.73 -1.89 23.57 -2.23 23.45 -2.62 C 23.34 -3.02 23.28 -3.46 23.28 -3.96 C 23.28 -4.45 23.34 -4.89 23.46 -5.28 C 23.58 -5.67 23.75 -6.01 23.96 -6.28 C 24.18 -6.56 24.44 -6.77 24.74 -6.92 C 25.05 -7.07 25.39 -7.14 25.76 -7.14 C 26.1 -7.14 26.39 -7.07 26.65 -6.94 C 26.9 -6.81 27.13 -6.63 27.34 -6.41 L 27.9 -7.04 C 27.67 -7.3 27.37 -7.53 27.01 -7.72 C 26.65 -7.92 26.23 -8.02 25.75 -8.02 C 25.25 -8.02 24.78 -7.92 24.35 -7.73 C 23.93 -7.55 23.56 -7.28 23.24 -6.92 C 22.93 -6.57 22.69 -6.14 22.51 -5.64 C 22.34 -5.14 22.25 -4.57 22.25 -3.94 Z M 29.56 -7.87 L 29.56 0 L 30.55 0 L 30.55 -3.71 L 34.21 -3.71 L 34.21 0 L 35.22 0 L 35.22 -7.87 L 34.21 -7.87 L 34.21 -4.57 L 30.55 -4.57 L 30.55 -7.87 Z M 39.83 -1.72 L 39.23 -1.02 C 39.57 -0.66 39.98 -0.38 40.45 -0.17 C 40.92 0.04 41.44 0.14 41.99 0.14 C 42.4 0.14 42.78 0.09 43.1 -0.03 C 43.43 -0.15 43.71 -0.31 43.94 -0.51 C 44.18 -0.71 44.35 -0.95 44.48 -1.22 C 44.6 -1.5 44.66 -1.79 44.66 -2.1 C 44.66 -2.39 44.62 -2.64 44.54 -2.86 C 44.45 -3.08 44.34 -3.27 44.2 -3.44 C 44.05 -3.6 43.88 -3.75 43.68 -3.87 C 43.48 -3.99 43.27 -4.1 43.04 -4.2 L 41.93 -4.68 C 41.77 -4.74 41.61 -4.81 41.46 -4.89 C 41.31 -4.97 41.17 -5.05 41.04 -5.15 C 40.91 -5.25 40.81 -5.37 40.73 -5.5 C 40.66 -5.63 40.62 -5.8 40.62 -5.99 C 40.62 -6.35 40.75 -6.63 41.02 -6.83 C 41.29 -7.04 41.64 -7.14 42.08 -7.14 C 42.45 -7.14 42.78 -7.07 43.07 -6.94 C 43.37 -6.81 43.63 -6.63 43.87 -6.4 L 44.41 -7.04 C 44.13 -7.33 43.79 -7.57 43.39 -7.75 C 42.99 -7.93 42.56 -8.02 42.08 -8.02 C 41.72 -8.02 41.39 -7.96 41.09 -7.86 C 40.79 -7.76 40.53 -7.61 40.31 -7.42 C 40.09 -7.23 39.92 -7.01 39.8 -6.76 C 39.67 -6.5 39.61 -6.22 39.61 -5.93 C 39.61 -5.64 39.66 -5.39 39.76 -5.17 C 39.85 -4.95 39.98 -4.76 40.13 -4.6 C 40.28 -4.44 40.45 -4.3 40.64 -4.19 C 40.84 -4.08 41.02 -3.98 41.21 -3.9 L 42.34 -3.41 C 42.52 -3.32 42.69 -3.24 42.85 -3.16 C 43.01 -3.08 43.15 -2.99 43.27 -2.89 C 43.38 -2.79 43.47 -2.67 43.54 -2.53 C 43.61 -2.39 43.64 -2.22 43.64 -2.02 C 43.64 -1.63 43.5 -1.32 43.21 -1.09 C 42.92 -0.85 42.52 -0.73 42 -0.73 C 41.59 -0.73 41.2 -0.82 40.82 -1 C 40.44 -1.18 40.11 -1.42 39.83 -1.72 Z M 46.21 -7.87 L 46.21 0 L 47.21 0 L 47.21 -3.12 L 48.62 -3.12 C 49.06 -3.12 49.45 -3.17 49.81 -3.27 C 50.16 -3.37 50.47 -3.52 50.72 -3.72 C 50.98 -3.92 51.18 -4.17 51.32 -4.48 C 51.46 -4.78 51.53 -5.14 51.53 -5.56 C 51.53 -5.99 51.46 -6.35 51.32 -6.65 C 51.18 -6.94 50.98 -7.18 50.73 -7.36 C 50.48 -7.54 50.17 -7.67 49.81 -7.75 C 49.45 -7.83 49.06 -7.87 48.62 -7.87 Z M 48.5 -3.94 L 47.21 -3.94 L 47.21 -7.07 L 48.5 -7.07 C 49.18 -7.07 49.69 -6.96 50.03 -6.74 C 50.36 -6.52 50.53 -6.12 50.53 -5.56 C 50.53 -5 50.37 -4.59 50.03 -4.33 C 49.7 -4.07 49.19 -3.94 48.5 -3.94 Z M 56.03 0.14 C 56.52 0.14 56.98 0.05 57.39 -0.14 C 57.8 -0.34 58.16 -0.61 58.46 -0.97 C 58.76 -1.32 58.99 -1.75 59.15 -2.26 C 59.32 -2.77 59.4 -3.34 59.4 -3.97 C 59.4 -4.6 59.32 -5.16 59.15 -5.66 C 58.99 -6.16 58.76 -6.58 58.46 -6.93 C 58.16 -7.28 57.8 -7.55 57.39 -7.73 C 56.98 -7.92 56.52 -8.02 56.03 -8.02 C 55.53 -8.02 55.08 -7.92 54.67 -7.74 C 54.25 -7.56 53.9 -7.29 53.6 -6.94 C 53.31 -6.59 53.08 -6.17 52.91 -5.67 C 52.75 -5.17 52.67 -4.6 52.67 -3.97 C 52.67 -3.34 52.75 -2.77 52.91 -2.26 C 53.08 -1.75 53.31 -1.32 53.6 -0.97 C 53.9 -0.61 54.25 -0.34 54.67 -0.14 C 55.08 0.05 55.53 0.14 56.03 0.14 Z M 56.03 -0.73 C 55.68 -0.73 55.36 -0.81 55.07 -0.96 C 54.79 -1.11 54.55 -1.33 54.34 -1.61 C 54.14 -1.9 53.98 -2.24 53.87 -2.63 C 53.76 -3.03 53.7 -3.48 53.7 -3.97 C 53.7 -4.46 53.76 -4.9 53.87 -5.29 C 53.98 -5.68 54.14 -6.02 54.34 -6.29 C 54.55 -6.56 54.79 -6.77 55.07 -6.92 C 55.36 -7.07 55.68 -7.14 56.03 -7.14 C 56.38 -7.14 56.7 -7.07 56.98 -6.92 C 57.27 -6.77 57.51 -6.56 57.71 -6.29 C 57.92 -6.02 58.08 -5.68 58.19 -5.29 C 58.3 -4.9 58.36 -4.46 58.36 -3.97 C 58.36 -3.48 58.3 -3.03 58.19 -2.63 C 58.08 -2.24 57.92 -1.9 57.71 -1.61 C 57.51 -1.33 57.27 -1.11 56.98 -0.96 C 56.7 -0.81 56.38 -0.73 56.03 -0.73 Z M 62.09 -4.14 L 62.09 -7.07 L 63.41 -7.07 C 64.02 -7.07 64.5 -6.96 64.82 -6.76 C 65.15 -6.55 65.32 -6.18 65.32 -5.66 C 65.32 -5.15 65.15 -4.77 64.82 -4.52 C 64.5 -4.27 64.02 -4.14 63.41 -4.14 Z M 65.41 0 L 66.54 0 L 64.55 -3.43 C 65.08 -3.57 65.51 -3.82 65.83 -4.19 C 66.15 -4.56 66.31 -5.05 66.31 -5.66 C 66.31 -6.07 66.24 -6.42 66.11 -6.7 C 65.97 -6.98 65.78 -7.2 65.54 -7.38 C 65.29 -7.56 65 -7.68 64.66 -7.76 C 64.32 -7.83 63.95 -7.87 63.55 -7.87 L 61.09 -7.87 L 61.09 0 L 62.09 0 L 62.09 -3.32 L 63.52 -3.32 Z M 69.46 -7.03 L 69.46 0 L 70.46 0 L 70.46 -7.03 L 72.84 -7.03 L 72.84 -7.87 L 67.08 -7.87 L 67.08 -7.03 Z M 73.81 -1.72 L 73.21 -1.02 C 73.56 -0.66 73.96 -0.38 74.44 -0.17 C 74.91 0.04 75.42 0.14 75.97 0.14 C 76.39 0.14 76.76 0.09 77.09 -0.03 C 77.42 -0.15 77.7 -0.31 77.93 -0.51 C 78.16 -0.71 78.34 -0.95 78.46 -1.22 C 78.59 -1.5 78.65 -1.79 78.65 -2.1 C 78.65 -2.39 78.61 -2.64 78.52 -2.86 C 78.44 -3.08 78.32 -3.27 78.18 -3.44 C 78.04 -3.6 77.86 -3.75 77.66 -3.87 C 77.46 -3.99 77.25 -4.1 77.03 -4.2 L 75.91 -4.68 C 75.75 -4.74 75.6 -4.81 75.44 -4.89 C 75.29 -4.97 75.15 -5.05 75.02 -5.15 C 74.9 -5.25 74.79 -5.37 74.72 -5.5 C 74.64 -5.63 74.6 -5.8 74.6 -5.99 C 74.6 -6.35 74.74 -6.63 75.01 -6.83 C 75.27 -7.04 75.63 -7.14 76.07 -7.14 C 76.44 -7.14 76.77 -7.07 77.06 -6.94 C 77.35 -6.81 77.62 -6.63 77.86 -6.4 L 78.4 -7.04 C 78.12 -7.33 77.78 -7.57 77.38 -7.75 C 76.98 -7.93 76.54 -8.02 76.07 -8.02 C 75.71 -8.02 75.38 -7.96 75.08 -7.86 C 74.78 -7.76 74.52 -7.61 74.3 -7.42 C 74.08 -7.23 73.91 -7.01 73.78 -6.76 C 73.66 -6.5 73.6 -6.22 73.6 -5.93 C 73.6 -5.64 73.64 -5.39 73.74 -5.17 C 73.84 -4.95 73.96 -4.76 74.11 -4.6 C 74.26 -4.44 74.44 -4.3 74.63 -4.19 C 74.82 -4.08 75.01 -3.98 75.19 -3.9 L 76.32 -3.41 C 76.5 -3.32 76.68 -3.24 76.84 -3.16 C 77 -3.08 77.13 -2.99 77.25 -2.89 C 77.37 -2.79 77.46 -2.67 77.53 -2.53 C 77.59 -2.39 77.63 -2.22 77.63 -2.02 C 77.63 -1.63 77.48 -1.32 77.2 -1.09 C 76.91 -0.85 76.5 -0.73 75.98 -0.73 C 75.58 -0.73 75.18 -0.82 74.8 -1 C 74.42 -1.18 74.09 -1.42 73.81 -1.72 Z" stroke-linecap="round" />
</g>
</g>
</g>
</svg>