<svg xmlns="http://www.w3.org/2000/svg" viewBox="0 0 50.978 50.978" width="48px" height="48px">
  <path d="M43.52 7.458C38.711 2.648 32.307 0 25.489 0 18.67 0 12.266 2.648 7.458 7.458c-9.943 9.941-9.943 26.119 0 36.062 4.809 4.809 11.212 7.456 18.031 7.458h.002c6.816 0 13.221-2.648 18.029-7.458 4.809-4.809 7.457-11.212 7.457-18.03 0-6.82-2.649-13.224-7.457-18.032zm-1.414 34.647c-4.432 4.431-10.332 6.872-16.615 6.872h-.002c-6.285-.001-12.187-2.441-16.617-6.872-9.162-9.163-9.162-24.071 0-33.233C13.303 4.44 19.204 2 25.489 2c6.284 0 12.186 2.44 16.617 6.872 4.431 4.431 6.871 10.332 6.871 16.617 0 6.283-2.441 12.186-6.871 16.616z" fill="#919AA0"/>
  <path d="M23.578 32.218c-.023-1.734.143-3.059.496-3.972.353-.913 1.11-1.997 2.272-3.253.468-.536.923-1.062 1.367-1.575.626-.753 1.104-1.478 1.436-2.175.331-.707.495-1.541.495-2.5 0-1.096-.26-2.088-.779-2.979-.565-.879-1.501-1.336-2.806-1.369-1.802.057-2.985.667-3.55 1.832-.301.535-.503 1.141-.607 1.814-.139.707-.207 1.432-.207 2.174h-2.937c-.091-2.208.407-4.114 1.493-5.719 1.062-1.64 2.855-2.481 5.378-2.527 2.16.023 3.874.608 5.141 1.758 1.278 1.16 1.929 2.764 1.95 4.811 0 1.142-.137 2.111-.41 2.911-.309.845-.731 1.593-1.268 2.243-.492.65-1.068 1.318-1.73 2.002-.65.697-1.313 1.479-1.987 2.346-.239.377-.429.777-.565 1.199-.16.959-.217 1.951-.171 2.979h-3.011zm0 6.002v-3.484h3.076v3.484h-3.076z" fill="#919AA0"/>
</svg>
